<svg xmlns="http://www.w3.org/2000/svg" version="1.1" xmlns:xlink="http://www.w3.org/1999/xlink" xmlns:svgjs="http://svgjs.dev/svgjs" viewBox="0 0 1422 800"><g stroke-width="2" stroke="hsla(0, 0%, 100%, 0.25)" fill="none" stroke-linecap="butt"><line x1="0" y1="0" x2="164" y2="164" opacity="1.00"></line><line x1="328" y1="0" x2="164" y2="164" opacity="1.00"></line><line x1="492" y1="0" x2="328" y2="164" opacity="1.00"></line><line x1="492" y1="0" x2="656" y2="164" opacity="1.00"></line><line x1="820" y1="0" x2="656" y2="164" opacity="1.00"></line><line x1="984" y1="0" x2="820" y2="164" opacity="1.00"></line><line x1="1148" y1="0" x2="984" y2="164" opacity="1.00"></line><line x1="1148" y1="0" x2="1312" y2="164" opacity="1.00"></line><line x1="1312" y1="0" x2="1476" y2="164" opacity="1.00"></line><line x1="0" y1="164" x2="164" y2="328" opacity="0.81"></line><line x1="328" y1="164" x2="164" y2="328" opacity="0.81"></line><line x1="328" y1="164" x2="492" y2="328" opacity="0.81"></line><line x1="492" y1="164" x2="656" y2="328" opacity="0.81"></line><line x1="820" y1="164" x2="656" y2="328" opacity="0.81"></line><line x1="984" y1="164" x2="820" y2="328" opacity="0.81"></line><line x1="984" y1="164" x2="1148" y2="328" opacity="0.81"></line><line x1="1148" y1="164" x2="1312" y2="328" opacity="0.81"></line><line x1="1476" y1="164" x2="1312" y2="328" opacity="0.81"></line><line x1="164" y1="328" x2="0" y2="492" opacity="0.61"></line><line x1="164" y1="328" x2="328" y2="492" opacity="0.61"></line><line x1="492" y1="328" x2="328" y2="492" opacity="0.61"></line><line x1="656" y1="328" x2="492" y2="492" opacity="0.61"></line><line x1="820" y1="328" x2="656" y2="492" opacity="0.61"></line><line x1="820" y1="328" x2="984" y2="492" opacity="0.61"></line><line x1="1148" y1="328" x2="984" y2="492" opacity="0.61"></line><line x1="1312" y1="328" x2="1148" y2="492" opacity="0.61"></line><line x1="1312" y1="328" x2="1476" y2="492" opacity="0.61"></line><line x1="164" y1="492" x2="0" y2="656" opacity="0.42"></line><line x1="164" y1="492" x2="328" y2="656" opacity="0.42"></line><line x1="492" y1="492" x2="328" y2="656" opacity="0.42"></line><line x1="492" y1="492" x2="656" y2="656" opacity="0.42"></line><line x1="656" y1="492" x2="820" y2="656" opacity="0.42"></line><line x1="820" y1="492" x2="984" y2="656" opacity="0.42"></line><line x1="984" y1="492" x2="1148" y2="656" opacity="0.42"></line><line x1="1312" y1="492" x2="1148" y2="656" opacity="0.42"></line><line x1="1476" y1="492" x2="1312" y2="656" opacity="0.42"></line><line x1="0" y1="656" x2="164" y2="820" opacity="0.22"></line><line x1="164" y1="656" x2="328" y2="820" opacity="0.22"></line><line x1="492" y1="656" x2="328" y2="820" opacity="0.22"></line><line x1="492" y1="656" x2="656" y2="820" opacity="0.22"></line><line x1="656" y1="656" x2="820" y2="820" opacity="0.22"></line><line x1="984" y1="656" x2="820" y2="820" opacity="0.22"></line><line x1="984" y1="656" x2="1148" y2="820" opacity="0.22"></line><line x1="1312" y1="656" x2="1148" y2="820" opacity="0.22"></line><line x1="1312" y1="656" x2="1476" y2="820" opacity="0.22"></line></g></svg>